<svg xmlns="http://www.w3.org/2000/svg" width="1200" height="930" viewBox="0 0 1200 930"><rect width="1200" height="930" fill="#101412"/><text x="45" y="55" fill="#F3EFE5" font-family="Arial" font-size="28">TTSapi / Grafana configuration preview</text><text x="45" y="88" fill="#BFA5FF" font-family="monospace" font-size="13">VERSIONED LAYOUT · NO LIVE TELEMETRY · NOT A RUNTIME SCREENSHOT</text><text x="40.0" y="135" fill="#BFA5FF" font-family="monospace" font-size="13">GPU</text><rect x="40.0" y="141" width="548.0" height="159" rx="8" fill="#18211D" stroke="#ffffff30"/><text x="58.0" y="170" fill="#F3EFE5" font-family="Arial" font-size="16">GPU Utilization (%)</text><text x="58.0" y="209" fill="#AAB4A7" font-family="monospace" font-size="12">1 configured query target(s)</text><text x="58.0" y="236" fill="#AAB4A7" font-family="Arial" font-size="12">No measurements loaded</text><rect x="598.0" y="141" width="548.0" height="159" rx="8" fill="#18211D" stroke="#ffffff30"/><text x="616.0" y="170" fill="#F3EFE5" font-family="Arial" font-size="16">GPU Temperature (°C)</text><text x="616.0" y="209" fill="#AAB4A7" font-family="monospace" font-size="12">1 configured query target(s)</text><text x="616.0" y="236" fill="#AAB4A7" font-family="Arial" font-size="12">No measurements loaded</text><rect x="40.0" y="309" width="1106.0" height="159" rx="8" fill="#18211D" stroke="#ffffff30"/><text x="58.0" y="338" fill="#F3EFE5" font-family="Arial" font-size="16">GPU Memory Usage (GB)</text><text x="58.0" y="377" fill="#AAB4A7" font-family="monospace" font-size="12">2 configured query target(s)</text><text x="58.0" y="404" fill="#AAB4A7" font-family="Arial" font-size="12">No measurements loaded</text><text x="40.0" y="492" fill="#BFA5FF" font-family="monospace" font-size="13">API LATENCY &amp; THROUGHPUT</text><rect x="40.0" y="498" width="1106.0" height="159" rx="8" fill="#18211D" stroke="#ffffff30"/><text x="58.0" y="527" fill="#F3EFE5" font-family="Arial" font-size="16">Request duration (p50/p95/p99)</text><text x="58.0" y="566" fill="#AAB4A7" font-family="monospace" font-size="12">3 configured query target(s)</text><text x="58.0" y="593" fill="#AAB4A7" font-family="Arial" font-size="12">No measurements loaded</text><rect x="40.0" y="666" width="548.0" height="159" rx="8" fill="#18211D" stroke="#ffffff30"/><text x="58.0" y="695" fill="#F3EFE5" font-family="Arial" font-size="16">Requests per second</text><text x="58.0" y="734" fill="#AAB4A7" font-family="monospace" font-size="12">1 configured query target(s)</text><text x="58.0" y="761" fill="#AAB4A7" font-family="Arial" font-size="12">No measurements loaded</text><rect x="598.0" y="666" width="548.0" height="159" rx="8" fill="#18211D" stroke="#ffffff30"/><text x="616.0" y="695" fill="#F3EFE5" font-family="Arial" font-size="16">HTTP Status Codes</text><text x="616.0" y="734" fill="#AAB4A7" font-family="monospace" font-size="12">1 configured query target(s)</text><text x="616.0" y="761" fill="#AAB4A7" font-family="Arial" font-size="12">No measurements loaded</text><text x="40.0" y="849" fill="#BFA5FF" font-family="monospace" font-size="13">BENCHMARK (/V1/BENCH)</text><rect x="40.0" y="855" width="1106.0" height="159" rx="8" fill="#18211D" stroke="#ffffff30"/><text x="58.0" y="884" fill="#F3EFE5" font-family="Arial" font-size="16">Últimos benchmarks (public)</text><text x="58.0" y="923" fill="#AAB4A7" font-family="monospace" font-size="12">1 configured query target(s)</text><text x="58.0" y="950" fill="#AAB4A7" font-family="Arial" font-size="12">No measurements loaded</text></svg>